<svg width="11" height="11" viewBox="0 0 11 11" fill="none" xmlns="http://www.w3.org/2000/svg">
<path d="M1.41037 0.408636C1.13375 0.132017 0.685259 0.132017 0.408641 0.408636C0.132016 0.685254 0.132016 1.13375 0.408641 1.41037L4.49909 5.5008L0.408683 9.59121C0.132058 9.86782 0.132058 10.3163 0.408683 10.5929C0.685302 10.8695 1.1338 10.8695 1.41042 10.5929L5.50081 6.50253L9.59123 10.5929C9.86783 10.8695 10.3163 10.8695 10.593 10.5929C10.8696 10.3163 10.8696 9.86782 10.593 9.59121L6.50254 5.5008L10.593 1.41037C10.8696 1.13375 10.8696 0.685254 10.593 0.408636C10.3163 0.132017 9.8679 0.132017 9.59123 0.408636L5.50081 4.49908L1.41037 0.408636Z" fill="white"/>
</svg>
