<svg width="31" height="26" viewBox="0 0 31 26" fill="none" xmlns="http://www.w3.org/2000/svg">
<path d="M30.8107 3.54672C30.1441 3.84283 28.5207 4.37759 27.8107 4.54672C28.593 3.80193 29.4788 2.58651 29.8107 1.54672C29.9054 1.24987 30.0782 0.387778 29.8107 0.546715C28.8229 1.13366 26.9213 2.26511 25.8107 2.54672C25.7462 2.56306 25.8774 2.54672 25.8107 2.54672C25.6083 2.54672 25.9654 2.6833 25.8107 2.54672C24.629 1.50333 22.3886 0.546715 20.8107 0.546715C20.1279 0.546715 19.4875 0.336412 18.8107 0.546715C16.7135 1.19836 15.3183 3.4085 14.8107 5.54672C14.6202 6.34873 14.722 6.76559 14.8107 7.54672C14.8208 7.63648 14.8368 7.51733 14.8107 7.54672C14.7648 7.59823 14.8782 7.54672 14.8107 7.54672C14.8031 7.54672 14.8183 7.54745 14.8107 7.54672C10.2201 7.11944 5.73675 5.14254 2.81066 1.54672C2.66145 1.3633 2.92959 1.34235 2.81066 1.54672C2.23766 2.53155 1.81066 4.40052 1.81066 5.54672C1.81066 7.3033 2.58705 8.33992 3.81066 9.54672C3.2961 9.42449 2.27329 9.80414 1.81066 9.54672C1.58685 9.42215 1.81381 9.29025 1.81066 9.54672C1.77863 12.1562 2.52611 14.5011 4.81066 15.5467C4.76466 15.5478 4.85674 15.5467 4.81066 15.5467C4.44853 15.5467 4.17155 15.6158 3.81066 15.5467C3.55861 15.4985 3.7324 15.3019 3.81066 15.5467C4.55219 17.866 6.42532 20.1586 8.81066 20.5467C6.83097 21.8781 4.21012 22.5467 1.81066 22.5467H0.810663C0.580189 22.5467 0.869397 22.3231 0.810663 22.5467C0.752807 22.767 0.614128 23.4322 0.810663 23.5467C3.51447 25.1231 6.67838 25.5467 9.81066 25.5467C12.5524 25.5467 15.4942 24.6217 17.8107 23.5467C19.9342 22.5612 21.2333 21.3396 22.8107 19.5467C24.2801 17.8766 26.014 15.6789 26.8107 13.5467C27.5701 11.5142 27.8107 9.61722 27.8107 7.54672C27.8106 7.21426 27.5488 6.75966 27.8107 6.54672C28.8043 5.73847 30.0979 4.61487 30.8107 3.54672C31.1204 3.4091 30.9989 3.26467 30.8107 3.54672Z" fill="white" fill-opacity="0.5"/>
</svg>
