<svg width="31" height="30" viewBox="0 0 31 30" fill="none" xmlns="http://www.w3.org/2000/svg">
<path d="M26.3545 0H4.35449C2.12188 0 0.354492 1.76733 0.354492 4V26C0.354492 28.2327 2.1218 30 4.35449 30H15.3545V19H12.3545C11.9925 19 11.3559 19.3619 11.3545 19V15C11.3531 14.6361 11.9906 15 12.3545 15H15.3545V11C15.3545 7.12513 17.8978 5 21.3545 5H24.3545C24.7174 5 24.3545 5.63702 24.3545 6V9C24.3545 9.36283 24.7173 8.99978 24.3545 9H22.3545C20.4747 9 20.3545 10.6891 20.3545 12V15H24.3545C24.7481 15 24.4009 14.6091 24.3545 15V19C24.3153 19.3307 23.6875 19 23.3545 19H20.3545V30H26.3545C28.5871 30 30.3545 28.2326 30.3545 26V4C30.3544 1.76733 28.5872 0 26.3545 0Z" fill="white" fill-opacity="0.5"/>
</svg>
