<svg width="30" height="30" viewBox="0 0 30 30" fill="none" xmlns="http://www.w3.org/2000/svg">
<path d="M21 0H9C4.07203 0 0 4.07203 0 9V21C0 25.928 4.07203 30 9 30H21C25.928 30 30 25.928 30 21V9C29.9999 4.07203 25.9279 0 21 0ZM27 21C27 24.269 24.269 27 21 27H9C5.73096 27 3 24.269 3 21V9C3 5.73091 5.73096 3 9 3H21C24.269 3 27 5.73091 27 9V21Z" fill="white" fill-opacity="0.5"/>
<path d="M15 7C10.5888 7 7 10.5888 7 15C7 19.4112 10.5888 23 15 23C19.4112 23 23 19.4112 23 15C23 10.5888 19.4112 7 15 7ZM15 20C12.3003 20 10 17.6998 10 15C10 12.3002 12.3003 10 15 10C17.6997 10 20 12.3002 20 15C20 17.6997 17.6997 20 15 20Z" fill="white" fill-opacity="0.5"/>
<path d="M23 9C24.1046 9 25 8.10457 25 7C25 5.89543 24.1046 5 23 5C21.8954 5 21 5.89543 21 7C21 8.10457 21.8954 9 23 9Z" fill="white" fill-opacity="0.5"/>
</svg>
