<svg width="44" height="19" viewBox="0 0 44 19" fill="none" xmlns="http://www.w3.org/2000/svg">
<g clip-path="url(#clip0_462_1068)">
<path d="M20.5095 9.14252V14.2269H18.9082V1.67077H23.1552C23.6622 1.6601 24.1662 1.75066 24.6382 1.93723C25.1102 2.1238 25.5409 2.40267 25.9053 2.75777C26.2735 3.0913 26.5665 3.50034 26.7646 3.95741C26.9627 4.41447 27.0615 4.90896 27.0541 5.40764C27.0647 5.90899 26.9675 6.40671 26.7692 6.86669C26.5709 7.32666 26.2762 7.73801 25.9053 8.07255C25.1627 8.78586 24.246 9.14218 23.1552 9.14151H20.5095V9.14252ZM20.5095 3.21661V7.59968H23.195C23.4894 7.60847 23.7824 7.55527 24.0552 7.44348C24.3281 7.33169 24.5747 7.16378 24.7794 6.95048C24.9831 6.75105 25.145 6.51252 25.2555 6.24898C25.366 5.98544 25.423 5.70225 25.423 5.41616C25.423 5.13007 25.366 4.84688 25.2555 4.58334C25.145 4.3198 24.9831 4.08126 24.7794 3.88184C24.5773 3.66404 24.3315 3.49201 24.0583 3.37716C23.7852 3.2623 23.4909 3.20723 23.195 3.21561H20.5095V3.21661Z" fill="#D6D6D6"/>
<path d="M30.7448 5.35547C31.9284 5.35547 32.8627 5.67406 33.5477 6.31123C34.2326 6.9484 34.5748 7.82201 34.5741 8.93205V14.2268H33.0424V13.0346H32.9728C32.3097 14.0164 31.4278 14.5073 30.3271 14.5073C29.3875 14.5073 28.6014 14.2268 27.9689 13.6658C27.6653 13.4083 27.4226 13.0858 27.2584 12.7218C27.0943 12.3579 27.0128 11.9616 27.02 11.5619C27.02 10.6729 27.3535 9.96596 28.0206 9.44099C28.6876 8.91602 29.5781 8.65287 30.6921 8.65154C31.643 8.65154 32.4261 8.82686 33.0414 9.1775V8.80883C33.0432 8.53634 32.9848 8.26687 32.8704 8.01994C32.756 7.77301 32.5885 7.55483 32.38 7.3812C31.9565 6.99637 31.4046 6.78639 30.8343 6.79312C29.9399 6.79312 29.232 7.17315 28.7108 7.93321L27.3005 7.03857C28.0763 5.9165 29.2244 5.35547 30.7448 5.35547ZM28.673 11.597C28.672 11.8022 28.7196 12.0048 28.812 12.1878C28.9044 12.3708 29.0388 12.5289 29.2042 12.6489C29.5583 12.9295 29.9979 13.0782 30.4484 13.0697C31.1242 13.0685 31.7719 12.7976 32.2497 12.3163C32.7802 11.8134 33.0454 11.2233 33.0454 10.546C32.5461 10.1453 31.8499 9.94492 30.9567 9.94492C30.3062 9.94492 29.7638 10.1029 29.3295 10.4188C28.8909 10.7394 28.673 11.1291 28.673 11.597Z" fill="#D6D6D6"/>
<path d="M43.3658 5.63477L38.0188 18.0125H36.3657L38.35 13.6815L34.834 5.63477H36.5746L39.1158 11.8061H39.1506L41.6223 5.63477H43.3658Z" fill="#D6D6D6"/>
<path d="M14.0369 8.04678C14.0375 7.55523 13.9962 7.06453 13.9136 6.58008H7.16016V9.35819H11.0282C10.949 9.8019 10.7815 10.2249 10.5357 10.6016C10.2899 10.9783 9.97092 11.301 9.59797 11.5502V13.3536H11.9064C13.2581 12.0982 14.0369 10.2418 14.0369 8.04678Z" fill="#D6D6D6"/>
<path d="M7.16008 15.0944C9.09262 15.0944 10.7198 14.4553 11.9064 13.3532L9.59789 11.5499C8.95536 11.9887 8.12784 12.2392 7.16008 12.2392C5.29219 12.2392 3.70677 10.9709 3.13984 9.26172H0.761719V11.1201C1.35776 12.3148 2.27172 13.3191 3.40157 14.0209C4.53141 14.7227 5.83268 15.0944 7.16008 15.0944Z" fill="#D6D6D6"/>
<path d="M3.14067 9.26208C2.84096 8.36647 2.84096 7.3966 3.14067 6.501V4.64258H0.762545C0.261134 5.64758 0 6.75677 0 7.88154C0 9.00631 0.261134 10.1155 0.762545 11.1205L3.14067 9.26208Z" fill="#D6D6D6"/>
<path d="M7.16008 3.5237C8.18134 3.50689 9.16815 3.89556 9.90721 4.60569L11.9511 2.5469C10.6551 1.32072 8.93808 0.647524 7.16008 0.668442C5.83268 0.668503 4.53142 1.04018 3.40157 1.74198C2.27172 2.44378 1.35776 3.44808 0.761719 4.64275L3.13984 6.50117C3.70677 4.79203 5.29219 3.5237 7.16008 3.5237Z" fill="#D6D6D6"/>
</g>
<defs>
<clipPath id="clip0_462_1068">
<rect width="44" height="18" fill="white" transform="translate(0 0.5)"/>
</clipPath>
</defs>
</svg>
