<svg width="37" height="23" viewBox="0 0 37 23" fill="none" xmlns="http://www.w3.org/2000/svg">
<g clip-path="url(#clip0_462_1061)">
<path d="M23.5023 3.20703H13.498V20.1934H23.5023V3.20703Z" fill="#828281"/>
<path d="M14.1331 11.7005C14.1331 8.24918 15.8481 5.18806 18.4841 3.20734C16.5468 1.76681 14.1013 0.896484 11.4335 0.896484C5.11331 0.896484 0 5.72826 0 11.7005C0 17.6726 5.11331 22.5044 11.4335 22.5044C14.1013 22.5044 16.5468 21.6341 18.4841 20.1936C15.8481 18.2429 14.1331 15.1517 14.1331 11.7005Z" fill="#D6D6D6"/>
<path d="M36.9996 11.7005C36.9996 17.6726 31.8864 22.5044 25.5662 22.5044C22.8984 22.5044 20.453 21.6341 18.5156 20.1936C21.1834 18.2128 22.8667 15.1517 22.8667 11.7005C22.8667 8.24918 21.1517 5.18806 18.5156 3.20734C20.453 1.76681 22.8984 0.896484 25.5662 0.896484C31.8864 0.896484 36.9996 5.75827 36.9996 11.7005Z" fill="#D6D6D6"/>
</g>
<defs>
<clipPath id="clip0_462_1061">
<rect width="37" height="23" fill="white"/>
</clipPath>
</defs>
</svg>
