<svg width="45" height="17" viewBox="0 0 45 17" fill="none" xmlns="http://www.w3.org/2000/svg">
<path d="M19.2606 15.3707H15.6602L17.9122 1.72852H21.5124L19.2606 15.3707Z" fill="#D6D6D6"/>
<path d="M32.3121 2.06127C31.602 1.78524 30.4756 1.48047 29.0828 1.48047C25.5272 1.48047 23.0234 3.33803 23.0081 5.99377C22.9785 7.95318 24.8007 9.04148 26.1636 9.69481C27.5565 10.3624 28.03 10.7982 28.03 11.3932C28.0159 12.3072 26.9044 12.7284 25.8678 12.7284C24.4304 12.7284 23.6601 12.5112 22.4897 12.0028L22.0156 11.7848L21.5117 14.8472C22.3562 15.2241 23.912 15.5586 25.5272 15.5732C29.3051 15.5732 31.7646 13.7444 31.7937 10.9143C31.8081 9.3613 30.8459 8.17134 28.7715 7.19897C27.5122 6.57477 26.741 6.15388 26.741 5.51521C26.7558 4.9346 27.3933 4.33991 28.8148 4.33991C29.9853 4.31078 30.8453 4.58643 31.4968 4.86227L31.8225 5.00713L32.3121 2.06127Z" fill="#D6D6D6"/>
<path d="M37.0978 10.5378C37.3943 9.75402 38.5352 6.72078 38.5352 6.72078C38.5203 6.7499 38.8312 5.92259 39.0089 5.4147L39.2606 6.59019C39.2606 6.59019 39.9424 9.85567 40.0904 10.5378C39.5277 10.5378 37.8089 10.5378 37.0978 10.5378ZM41.5421 1.72852H38.7571C37.8983 1.72852 37.2458 1.97504 36.8753 2.86041L31.5273 15.3705H35.3051C35.3051 15.3705 35.9271 13.6867 36.0608 13.3241C36.4752 13.3241 40.1503 13.3241 40.6835 13.3241C40.7868 13.8031 41.1131 15.3705 41.1131 15.3705H44.4468L41.5421 1.72852Z" fill="#D6D6D6"/>
<path d="M12.6529 1.72852L9.12687 11.0312L8.74156 9.14448C8.08967 6.96749 6.0452 4.60224 3.76367 3.42617L6.9934 15.3562H10.8008L16.4601 1.72852H12.6529Z" fill="#D6D6D6"/>
<path d="M5.85206 1.72852H0.0592626L0 2.00416C4.51874 3.13625 7.51142 5.86511 8.74098 9.14505L7.48169 2.87527C7.27437 2.00397 6.63724 1.75726 5.85206 1.72852Z" fill="#828281"/>
</svg>
