<svg width="51" height="21" viewBox="0 0 51 21" fill="none" xmlns="http://www.w3.org/2000/svg">
<g clip-path="url(#clip0_462_1065)">
<path d="M9.25506 2.65548C8.67069 3.35119 7.73569 3.89992 6.80069 3.82153C6.68382 2.88085 7.14158 1.88137 7.67725 1.26405C8.26163 0.548733 9.28428 0.0391952 10.1121 0C10.2095 0.97988 9.8297 1.94016 9.25506 2.65548ZM10.1024 4.00771C8.74861 3.92932 7.5896 4.78182 6.94678 4.78182C6.29423 4.78182 5.31053 4.04691 4.23918 4.0665C2.84642 4.0861 1.55106 4.8798 0.840068 6.14385C-0.620869 8.67194 0.460225 12.4151 1.87246 14.4728C2.56397 15.4919 3.39184 16.609 4.48267 16.5698C5.51507 16.5306 5.92413 15.8937 7.17079 15.8937C8.4272 15.8937 8.78756 16.5698 9.8784 16.5502C11.0082 16.5306 11.7192 15.5311 12.4107 14.512C13.1996 13.3558 13.521 12.2289 13.5405 12.1701C13.521 12.1505 11.3588 11.3176 11.3393 8.80913C11.3199 6.71218 13.0438 5.7127 13.1217 5.65391C12.1477 4.20369 10.6283 4.04691 10.1024 4.00771ZM17.9233 1.16606V16.4424H20.2803V11.2196H23.543C26.5233 11.2196 28.6173 9.16188 28.6173 6.18305C28.6173 3.20421 26.5623 1.16606 23.6209 1.16606H17.9233ZM20.2803 3.16501H22.9976C25.0429 3.16501 26.2117 4.26248 26.2117 6.19284C26.2117 8.12321 25.0429 9.23047 22.9879 9.23047H20.2803V3.16501ZM32.9222 16.56C34.4027 16.56 35.7759 15.8055 36.3993 14.61H36.448V16.4424H38.6296V8.83852C38.6296 6.63379 36.8765 5.21296 34.1786 5.21296C31.6756 5.21296 29.8251 6.65339 29.7569 8.63275H31.8801C32.0554 7.69206 32.9222 7.07474 34.1105 7.07474C35.5519 7.07474 36.3603 7.75085 36.3603 8.9953V9.838L33.419 10.0144C30.6821 10.181 29.2017 11.3078 29.2017 13.2676C29.2017 15.2469 30.7308 16.56 32.9222 16.56ZM33.5553 14.7472C32.2989 14.7472 31.5003 14.1397 31.5003 13.2088C31.5003 12.2485 32.2697 11.69 33.7404 11.6018L36.3603 11.4352V12.2975C36.3603 13.7281 35.1526 14.7472 33.5553 14.7472ZM41.5418 20.5971C43.8403 20.5971 44.9214 19.7152 45.8661 17.0401L50.0055 5.35995H47.6095L44.8337 14.3846H44.785L42.0093 5.35995H39.5452L43.5384 16.4816L43.3241 17.1577C42.9637 18.3042 42.3794 18.7451 41.3372 18.7451C41.1522 18.7451 40.7918 18.7255 40.6457 18.7059V20.5383C40.7821 20.5775 41.3665 20.5971 41.5418 20.5971Z" fill="#D6D6D6"/>
</g>
<defs>
<clipPath id="clip0_462_1065">
<rect width="51" height="21" fill="white"/>
</clipPath>
</defs>
</svg>
