<svg width="179" height="89" viewBox="0 0 179 89" fill="none" xmlns="http://www.w3.org/2000/svg">
<path d="M65.0001 12C62.7089 10.6996 60.5206 10.8448 58.0001 9.99998C54.2453 8.74448 50.8871 7.41769 48.0001 6.99998C47.111 6.94098 46.695 7.40652 47.0001 5.99998C47.1254 5.41943 47.1254 5.58053 47.0001 4.99998C46.6903 3.56984 47.1205 2.99998 48.0001 2.99998C52.1497 2.99998 56.0348 4.52736 60.0001 5.99998C65.4478 8.02247 71.5665 3.95875 77.0001 1.99998C83.3274 -0.28211 89.4646 0.00407135 96.0001 0.999977C99.4711 1.52861 102.713 1.78695 106 2.99998C111.694 5.10743 114.356 3.50564 119 1.99998C122.989 0.543878 126.855 0.0589763 131 -2.28882e-05C131.934 -0.0165427 132.118 0.746835 132 1.99998C131.981 2.20765 131.993 1.7923 132 1.99998C132.05 3.88795 132.317 3.86074 130 3.99998C122.944 4.42949 119.323 5.36139 112 12C109.134 14.5983 105.932 15.7593 101 16C99.2953 16.0826 96.6765 16.2973 95.0001 16C86.1167 14.4282 77.6302 15.5714 70.0001 22C67.7845 23.8667 65.6175 26.0513 63.0001 27C60.3211 27.9699 57.6672 28.121 55.0001 27C52.7325 26.0442 50.4024 25.9268 48.0001 26C46.9479 26.0354 46.9764 25.3357 47.0001 24C47.0544 20.4931 46.2194 20.9764 49.0001 21C51.3622 21.0212 53.7656 21.0182 56.0001 22C59.3198 23.4608 63.1083 22.4213 66.0001 20C69.6981 16.9084 72.7629 14.7393 77.0001 13C83.571 10.3049 90.2636 9.4424 97.0001 11C99.6672 11.6136 102.498 12.9587 105 11C105.374 10.705 105.988 10.5168 106 9.99998C106.017 9.34863 105.4 9.20529 105 8.99998C99.2709 6.03822 93.1075 4.69318 87.0001 4.99998C79.1878 5.39173 72.5284 11.4706 66.0001 17C62.6259 19.8555 58.8329 19.7906 55.0001 19C52.8815 18.3156 50.1872 17.9528 48.0001 18C46.9975 18.0212 46.6501 17.3971 47.0001 16C47.045 15.8065 46.9953 16.21 47.0001 16C47.0663 13.2459 46.9075 13.0212 49.0001 13C51.6932 12.9717 54.3377 14.5988 57.0001 15C59.7641 15.4153 63.8509 13.7015 65.0001 12Z" fill="white"/>
<path d="M114 24C116.291 25.3003 118.48 25.1551 121 26C124.755 27.2555 128.113 28.5823 131 29C131.889 29.059 132.305 28.5934 132 30C131.875 30.5805 131.875 30.4194 132 31C132.31 32.4301 131.88 33 131 33C126.85 33 122.965 31.4726 119 30C113.552 27.9751 107.434 32.0412 102 34C95.6727 36.2821 89.5355 35.9959 83.0001 35C79.529 34.4713 76.2867 34.213 73.0001 33C67.3064 30.8925 64.6439 32.4943 60.0001 34C56.0112 35.4561 52.145 35.941 48.0001 36C47.0661 36.0165 46.8819 35.2531 47.0001 34C47.019 33.7923 47.0072 34.2077 47.0001 34C46.9504 32.112 46.6829 32.1392 49.0001 32C56.0557 31.5705 59.6796 30.6386 67.0001 24C69.8658 21.4017 73.0701 20.2407 78.0001 20C79.7049 19.9174 82.3237 19.7026 84.0001 20C92.8834 21.5717 101.37 20.4285 109 14C111.216 12.1332 113.383 9.94869 116 8.99998C118.679 8.03003 121.333 7.879 124 8.99998C126.268 9.95577 128.598 10.0731 131 9.99998C132.052 9.96458 132.024 10.6642 132 12C131.946 15.5069 132.781 15.0236 130 15C127.638 14.9787 125.235 14.9794 123 14C119.68 12.5392 115.892 13.5787 113 16C109.302 19.0915 106.237 21.2607 102 23C95.4292 25.6951 88.7365 26.5576 82.0001 25C79.3329 24.3864 76.5017 23.0412 74.0001 25C73.6265 25.295 73.0119 25.4831 73.0001 26C72.9835 26.6513 73.6005 26.7947 74.0001 27C79.7292 29.9617 85.8926 31.3068 92.0001 31C99.8123 30.6082 106.472 24.5317 113 19C116.374 16.1444 120.167 16.2094 124 17C126.119 17.6844 128.813 18.0472 131 18C132.003 17.9787 132.35 18.6052 132 20C131.953 20.1911 132.002 19.7899 132 20C131.932 22.7541 132.093 22.9787 130 23C127.307 23.0283 124.662 21.4012 122 21C119.236 20.5846 115.149 22.2984 114 24Z" fill="white"/>
<path d="M10.0001 87C11.4952 87 12.1431 86.7832 13.0001 86C13.8548 85.2144 15.0001 84.2328 15.0001 83C15.0001 82.4763 14.1909 81.4519 14.0001 81C13.8047 80.5504 13.504 80.4866 13.0001 80C12.4916 79.5134 11.8925 78.5839 11.0001 78C10.1078 77.4183 9.39866 76.7832 8.00014 76C7.46805 75.6918 6.6994 75.4403 6.00014 75C5.30089 74.562 4.60287 74.6303 4.00014 74C3.39742 73.3697 2.42158 71.8412 2.00014 71C1.57635 70.1565 2.00014 70.0937 2.00014 69C2.00014 68.0754 1.66346 66.7948 2.00014 66C2.33682 65.2052 3.28912 64.5932 4.00014 64C4.71353 63.4068 5.89122 62.3337 7.00014 62C8.10907 61.6686 9.45566 62 11.0001 62C12.062 62 13.0348 61.8216 14.0001 62C14.9631 62.1761 15.2397 62.6199 16.0001 63C16.7606 63.38 17.5552 64.3952 18.0001 65C18.4475 65.6071 19.0001 66.1217 19.0001 67C19.0001 67.57 18.1908 67.5736 18.0001 68C17.8071 68.4287 18.3015 68.7034 18.0001 69C17.6964 69.2989 17.3745 69.8563 17.0001 70C16.6258 70.1413 15.3863 70 15.0001 70C14.687 70 14.3745 70.1182 14.0001 70C13.6258 69.8818 13.3133 69.2734 13.0001 69C12.687 68.7289 13.205 68.4519 13.0001 68C12.7953 67.5504 12.0001 67.6627 12.0001 67C12.0001 65.788 13.1785 63.9732 14.0001 63C14.0001 62.9305 13.132 63.0486 13.0001 63C12.8683 62.9536 13.2167 63.0486 13.0001 63C12.7835 62.9536 12.2521 63.0232 12.0001 63C11.7459 62.9768 11.2167 63 11.0001 63C9.79234 63 8.77239 63.321 8.00014 64C7.2279 64.6743 7.00014 65.8831 7.00014 67C7.00014 67.7114 7.67288 68.4299 8.00014 69C8.32505 69.57 8.54104 69.5481 9.00014 70C9.4569 70.4495 9.46805 70.6802 10.0001 71C10.5299 71.3221 11.614 71.7868 12.0001 72C13.2527 72.6882 13.9854 73.3813 15.0001 74C16.0125 74.6164 17.2985 75.3349 18.0001 76C18.6994 76.6627 18.614 77.2399 19.0001 78C19.3863 78.7601 20.0001 80.0267 20.0001 81C20.0001 82.1864 19.5534 83.0986 19.0001 84C18.4445 84.9037 17.9042 85.3836 17.0001 86C16.0961 86.6164 15.1585 87.6918 14.0001 88C12.8418 88.3082 11.208 88 10.0001 88C8.96421 88 8.09729 88.2224 7.00014 88C5.90299 87.7729 4.90659 87.4634 4.00014 87C3.09605 86.5365 2.5911 85.6882 2.00014 85C1.40919 84.3117 1.00014 82.9246 1.00014 82C1.00014 81.5968 0.880069 81.4032 1.00014 81C1.12022 80.5945 1.76 80.3198 2.00014 80C2.24265 79.6779 2.63757 79.2039 3.00014 79C3.36272 78.7984 3.51749 79 4.00014 79C4.36037 79 4.60225 78.8679 5.00014 79C5.39804 79.1298 5.64934 79.7265 6.00014 80C6.35095 80.2734 6.78118 80.5736 7.00014 81C7.21675 81.4264 7.00014 82.3836 7.00014 83C7.00014 83.475 7.18143 83.4068 7.00014 84C6.81885 84.5932 6.43335 85.5713 6.00014 86C5.90126 86.095 6.00014 85.9305 6.00014 86C6.00014 86.1668 5.75764 85.8586 6.00014 86C6.24029 86.1437 6.63757 86.8957 7.00014 87C7.36272 87.1066 7.55281 86.9281 8.00014 87C8.44512 87.0695 9.56458 87 10.0001 87Z" fill="white"/>
<path d="M23.9999 70C25.0259 70 26.2608 70.504 26.9999 71C27.7414 71.4937 27.5709 71.8724 27.9999 73L30.9999 81L33.9999 76L32.9999 74C32.8087 73.5292 32.2751 73.2113 31.9999 73C31.7271 72.7887 31.2867 72 30.9999 72C30.7131 72 30.324 72.8002 29.9999 73C29.6781 73.1998 29.3357 73.6716 28.9999 74C28.9999 73.5063 29.7364 72.4363 29.9999 72C30.2634 71.566 30.5452 71.3169 30.9999 71C31.4523 70.6831 32.4147 70.1745 32.9999 70C33.5852 69.8232 33.3284 70 33.9999 70C35.0259 70 36.2584 70.504 36.9999 71C37.7391 71.4937 38.5709 71.8724 38.9999 73L41.9999 81L45.9999 72C46.0932 71.7887 46.9999 71.1653 46.9999 71C46.9999 70.8599 46.1445 71.0942 45.9999 71C45.8577 70.9081 46.2028 71.0344 45.9999 71C45.7971 70.9633 45.2261 71.0115 44.9999 71C44.7714 70.9885 45.1911 71 44.9999 71H43.9999V70H49.9999V71C49.1885 71 48.2984 70.8484 47.9999 71C47.7015 71.1539 48.2377 71.504 47.9999 72L39.9999 88H38.9999L33.9999 77L28.9999 88H27.9999L21.9999 74C21.8064 73.5292 22.2751 73.2113 21.9999 73C21.7248 72.7887 21.2867 72 20.9999 72C20.7131 72 20.3217 72.8002 19.9999 73C19.6758 73.1998 19.3357 73.6716 18.9999 74C18.9999 73.5063 18.7364 72.4363 18.9999 72C19.2634 71.566 19.5476 71.3169 19.9999 71C20.4546 70.6831 21.4147 70.1745 21.9999 70C22.5852 69.8232 23.3307 70 23.9999 70Z" fill="white"/>
<path d="M60 88C58.3604 88 57.2859 87.4781 56 87C54.7141 86.5218 53.882 85.8606 53 85C52.118 84.1393 51.4541 83.1942 51 82C50.5459 80.8058 50 79.4344 50 78C50 76.5679 50.5602 75.1359 51 74C51.4398 72.8641 52.13 71.8023 53 71C53.87 70.2 54.7404 70.4315 56 70C57.262 69.5708 58.3843 69 60 69C60.7099 69 62.0941 68.8204 63 69C63.9059 69.1796 64.1921 69.5941 65 70C65.8103 70.4058 66.4503 71.3306 67 72C67.5521 72.6694 68 73.0204 68 74C68 74.814 67.4039 75.4145 67 76C66.5961 76.5854 66.6621 77.6198 66 78C65.3379 78.3848 64.8318 78.7854 64 79C63.1658 79.2146 61.87 78.8927 61 79C60.1324 79.1073 58.8342 78.9767 58 79C57.1682 79.0233 56.6382 79 56 79C56.0239 80.579 55.8662 82.0064 56 83C56.1338 83.9913 56.706 85.4635 57 86C57.294 86.5388 57.5124 86.8087 58 87C58.49 87.1912 59.3116 87 60 87C61.2715 87 62.64 86.4805 64 86C65.3576 85.5218 67.0224 84.9539 68 84C68 84.4525 67.3059 84.5335 67 85C66.6941 85.4665 66.5999 86.6175 66 87C65.3977 87.3825 63.8939 87.7621 63 88C62.1061 88.2402 61.1998 88 60 88ZM56 78C56.7338 77.9533 57.314 78.1073 58 78C58.686 77.8927 59.4742 78.3102 60 78C60.5258 77.6898 60.6821 76.5738 61 76C61.3179 75.4262 62 74.9563 62 74C62 73.4962 62.098 73.5015 62 73C61.902 72.4985 61.2079 71.3802 61 71C60.7897 70.6151 61.3179 70.2379 61 70C60.6821 69.7621 59.4398 70 59 70C58.5578 70 58.3776 69.7248 58 70C57.62 70.2729 57.2796 71.3306 57 72C56.718 72.6694 57.1721 72.9014 57 74C56.8303 75.1009 56 76.3509 56 78Z" fill="white"/>
<path d="M80 88C78.358 88 77.2859 87.4781 76 87C74.7141 86.5218 73.882 85.8606 73 85C72.118 84.1393 71.4517 83.1942 71 82C70.5459 80.8058 70 79.4344 70 78C70 76.5679 70.5602 75.1359 71 74C71.4398 72.8641 72.13 71.8023 73 71C73.87 70.2 74.738 70.4315 76 70C77.262 69.5708 78.3843 69 80 69C80.7099 69 82.0941 68.8204 83 69C83.9059 69.1796 84.1921 69.5941 85 70C85.8103 70.4058 86.4503 71.3306 87 72C87.5521 72.6694 88 73.0204 88 74C88 74.814 87.4039 75.4145 87 76C86.5961 76.5854 86.6621 77.6198 86 78C85.3379 78.3848 84.8294 78.7854 84 79C83.1658 79.2146 81.87 78.8927 81 79C80.1324 79.1073 78.8318 78.9767 78 79C77.1682 79.0233 76.6358 79 76 79C76.0239 80.579 75.8638 82.0064 76 83C76.1338 83.9913 76.706 85.4635 77 86C77.2916 86.5388 77.5124 86.8087 78 87C78.49 87.1912 79.3116 87 80 87C81.2715 87 82.6424 86.4805 84 86C85.36 85.5218 87.0201 84.9539 88 84C88 84.4525 87.3059 84.5335 87 85C86.6941 85.4665 86.5999 86.6175 86 87C85.3977 87.3825 83.8939 87.7621 83 88C82.1061 88.2402 81.1998 88 80 88ZM76 78C76.7338 77.9533 77.314 78.1073 78 78C78.686 77.8927 79.4742 78.3102 80 78C80.5258 77.6898 80.6821 76.5738 81 76C81.3179 75.4262 82 74.9563 82 74C82 73.4962 82.1004 73.5015 82 73C81.9044 72.4985 81.2079 71.3802 81 71C80.7897 70.6151 81.3179 70.2379 81 70C80.6821 69.7621 79.4398 70 79 70C78.5578 70 78.3776 69.7248 78 70C77.6176 70.2729 77.2796 71.3306 77 72C76.718 72.6694 77.1721 72.9014 77 74C76.8303 75.1009 76 76.3509 76 78Z" fill="white"/>
<path d="M95.0001 62C95.5126 62 95.4852 61.8567 96.0001 62C96.5126 62.1457 97.5972 62.6993 98.0001 63C98.4029 63.3007 98.7569 63.5418 99.0001 64C99.2456 64.4558 99.0001 65.3985 99.0001 66V69H104V70H99.0001V83C99.0001 83.3125 98.9739 83.5301 99.0001 84C99.0215 84.4699 98.8285 84.5653 99.0001 85C99.1693 85.4323 99.6211 85.6875 100 86C100.379 86.3148 101.316 87 102 87C102.88 87 103.109 86.531 104 86C104.892 85.4713 106.144 84.8411 107 84C107 84.4582 107.219 84.5301 107 85C106.778 85.4699 106.515 86.617 106 87C105.49 87.3853 104.83 87.758 104 88C103.171 88.2396 101.223 88 100 88C97.8024 88 96.3564 87.867 95.0001 87C93.6438 86.133 93.0001 84.7574 93.0001 83V70H91.0001V69H93.0001V66C93.0001 65.5442 93.1693 65.1809 93.0001 65C92.8285 64.8191 92.2432 64 92.0001 64C91.6831 64 91.391 64.7744 91.0001 65C90.6092 65.2302 90.391 65.617 90.0001 66C90.0001 65.5442 89.745 64.4323 90.0001 64C90.2575 63.5653 90.571 63.3501 91.0001 63C91.4291 62.6523 92.4256 62.2044 93.0001 62C93.5745 61.7956 94.3636 62 95.0001 62Z" fill="white"/>
<path d="M122 87V88H116V87C116.584 87 117.549 87.236 118 87C118.448 86.7663 117.903 86.236 118 86L128 63H129L139 85C139.121 85.2818 138.817 84.8923 139 85C139.183 85.1054 139.805 86 140 86C140.365 86 140.599 85.2451 141 85C141.401 84.7526 141.756 84.236 142 84C142 84.5177 142.266 85.5647 142 86C141.732 86.4353 141.448 86.6953 141 87C140.549 87.307 139.584 87.8259 139 88C138.416 88.1764 137.657 88 137 88C136.319 88 135.51 88.1764 135 88C134.49 87.8259 134.363 87.307 134 87C133.635 86.6953 133.254 86.3757 133 86C132.744 85.6243 132.168 85.3986 132 85L131 81H122L119 86C118.95 86.1397 119 86.9313 119 87C119 87.3299 119.49 86.9198 120 87C120.51 87.0848 121.393 87 122 87ZM122 80H130L126 70L122 80Z" fill="white"/>
<path d="M144 71C143.687 71 143.387 71.775 143 72C142.616 72.2273 142.384 72.6196 142 73C142 72.5477 141.746 71.4291 142 71C142.252 70.5733 142.578 70.3433 143 70C143.422 69.6544 144.435 69.2018 145 69C145.568 68.8005 146.373 69 147 69C147.87 69 148.216 69.5733 149 70C149.785 70.4291 150.736 71.1674 151 72C151.63 71.2161 152.133 70.4383 153 70C153.87 69.5593 155.034 69 156 69C156.604 69 156.482 68.8237 157 69C157.521 69.1786 158.614 69.6915 159 70C159.387 70.3108 159.784 70.5848 160 71C160.217 71.4152 160 71.5269 160 72C160 72.7862 159.554 73.4782 159 74C158.444 74.5218 157.846 75 157 75C156.517 75 156.326 75.1786 156 75C155.673 74.8214 155.203 74.2737 155 74C154.793 73.7263 155.083 73.3549 155 73C154.915 72.6428 154 72.3572 154 72C154 71.5245 154.88 71.4407 155 71C155.121 70.5593 154.854 70.1879 155 70C154.663 70 154.399 69.8098 154 70C153.602 70.1902 153.399 70.6915 153 71C152.602 71.3085 152.34 71.6336 152 72C151.661 72.3688 151.194 72.6428 151 73V83C151 83.5218 150.977 84.608 151 85C151.026 85.392 150.868 85.7611 151 86C151.132 86.2366 151.699 85.8817 152 86C152.302 86.1183 152.468 86 153 86V87H143V86C143.554 86 143.713 86.1183 144 86C144.29 85.8817 144.866 86.2366 145 86C145.132 85.7611 144.977 85.392 145 85C145.024 84.608 145 83.5218 145 83V73C145 72.5477 145.168 72.1763 145 72C144.828 71.8214 144.241 71 144 71Z" fill="white"/>
<path d="M166 62C166.513 62 166.485 61.8567 167 62C167.513 62.1457 168.597 62.6993 169 63C169.403 63.3007 169.757 63.5418 170 64C170.246 64.4558 170 65.3985 170 66V69H175V70H170V83C170 83.3125 169.976 83.5301 170 84C170.026 84.4699 169.828 84.5653 170 85C170.169 85.4323 170.621 85.6875 171 86C171.379 86.3148 172.316 87 173 87C173.88 87 174.109 86.531 175 86C175.892 85.4713 177.144 84.8411 178 84C178 84.4582 178.219 84.5301 178 85C177.778 85.4699 177.515 86.617 177 87C176.49 87.3853 175.83 87.758 175 88C174.171 88.2396 172.223 88 171 88C168.802 88 167.356 87.867 166 87C164.644 86.133 164 84.7574 164 83V70H162V69H164V66C164 65.5442 164.169 65.1809 164 65C163.828 64.8191 163.243 64 163 64C162.683 64 162.391 64.7744 162 65C161.609 65.2302 161.391 65.617 161 66C161 65.5442 160.745 64.4323 161 64C161.258 63.5653 161.571 63.3501 162 63C162.429 62.6523 163.426 62.2044 164 62C164.575 61.7956 165.364 62 166 62Z" fill="white"/>
</svg>
