<svg width="238" height="148" viewBox="0 0 238 148" fill="none" xmlns="http://www.w3.org/2000/svg">
<g clip-path="url(#clip0_56_346)">
<path fill-rule="evenodd" clip-rule="evenodd" d="M118.45 0C126.35 0 133.55 3.8 138.75 10C143.95 16.2 147.15 24.7 147.15 34.1C147.15 43.5 143.95 52.1 138.75 58.2C133.55 64.4 126.35 68.2 118.45 68.2C110.55 68.2 103.35 64.4 98.15 58.2C92.95 52 89.75 43.5 89.75 34.1C89.75 24.7 92.95 16.1 98.15 10C103.35 3.8 110.55 0 118.45 0ZM138.15 10.6C133.15 4.6 126.15 0.8 118.45 0.8C110.75 0.8 103.85 4.5 98.75 10.6C93.65 16.6 90.55 25 90.55 34.2C90.55 43.4 93.65 51.8 98.75 57.8C103.75 63.8 110.75 67.6 118.45 67.6C126.15 67.6 133.05 63.9 138.15 57.8C143.25 51.8 146.35 43.4 146.35 34.2C146.35 25 143.25 16.6 138.15 10.6Z" fill="white"/>
<path fill-rule="evenodd" clip-rule="evenodd" d="M119.15 48.4996C124.45 48.4996 128.65 44.3996 128.65 38.9996C128.65 33.2996 124.55 30.9996 119.05 28.4996C114.35 26.2996 112.65 24.4996 112.65 20.8996C112.65 17.3996 114.85 15.6996 118.65 15.6996C122.85 15.6996 126.15 17.5996 127.25 21.6996V15.8996C127.05 16.4996 126.25 16.7996 125.75 16.7996C124.05 16.7996 122.95 15.0996 118.65 15.0996C114.15 15.0996 110.25 17.8996 110.25 22.9996C110.25 27.4996 113.05 29.8996 118.35 32.4996C123.95 35.1996 125.85 36.6996 125.85 41.2996C125.85 44.9996 124.15 47.9996 119.25 47.9996C114.05 47.9996 110.45 44.7996 109.65 39.4996V46.9996C109.85 46.3996 110.65 46.0996 111.15 46.0996C112.95 46.0996 114.05 48.4996 119.15 48.4996Z" fill="white"/>
<path fill-rule="evenodd" clip-rule="evenodd" d="M144.65 27.6997C141.15 26.7997 137.75 30.1997 135.65 32.4997C131.15 37.2997 126.85 45.6997 124.85 51.0997H122.85C123.45 48.6997 124.55 45.5997 125.55 43.4997C125.85 42.4997 125.85 41.4997 125.65 40.5997C125.45 39.7997 125.05 38.9997 124.45 38.2997C124.15 38.5997 123.75 39.1997 123.05 40.0997C116.25 48.8997 109.65 53.2997 103.25 53.2997C99.2501 53.2997 96.8501 51.6997 96.1501 48.3997C94.3501 40.1997 103.95 34.1997 111.35 33.7997C110.45 33.1997 109.85 32.3997 109.75 31.2997C109.45 28.8997 110.45 26.6997 113.25 25.2997C119.75 21.7997 136.05 23.5997 144.65 27.6997ZM140.95 27.4997C139.65 27.5997 138.05 28.0997 136.05 28.8997C132.05 30.6997 128.25 33.6997 124.65 37.8997C125.45 38.7997 125.85 39.6997 126.15 40.5997C126.25 41.0997 126.35 41.4997 126.25 41.9997C126.95 40.6997 127.75 39.4997 128.65 38.2997C133.25 32.1997 137.35 28.5997 140.95 27.4997ZM141.75 26.9997C141.35 26.8997 140.85 26.7997 140.15 26.6997C136.75 26.0997 134.35 25.6997 132.95 25.4997C129.95 25.0997 126.45 24.9997 122.65 24.9997C119.75 24.9997 117.15 25.3997 114.65 26.2997C111.35 27.4997 109.75 29.1997 110.05 31.3997C110.15 32.3997 110.75 33.0997 111.75 33.5997C112.15 33.5997 112.55 33.5997 112.85 33.5997C117.35 33.4997 120.65 34.3997 123.35 36.5997C127.65 32.1997 134.75 27.1997 141.75 26.9997ZM123.05 36.9997C120.45 34.9997 117.05 33.9997 112.85 34.1997C111.15 34.2997 109.25 34.6997 107.25 35.4997C105.35 36.1997 103.65 37.0997 102.35 38.0997C97.6501 41.5997 95.7501 44.9997 96.5501 48.2997C97.2501 51.1997 99.2501 52.5997 102.75 52.5997C105.45 52.5997 108.35 51.4997 111.25 49.2997C113.85 47.3997 116.95 44.1997 120.65 39.6997C121.35 38.6997 122.15 37.7997 123.05 36.9997Z" fill="white"/>
<path fill-rule="evenodd" clip-rule="evenodd" d="M43.55 80.6996C41.75 80.0996 39.25 79.5996 36.75 79.5996C31.45 79.5996 27.25 81.9996 27.25 87.2996C27.25 92.5996 32.15 96.3996 36.25 98.4996C45.15 103.2 45.95 116.2 36.45 116.2C32.05 116.2 29.15 113.9 26.75 108.6L26.25 108.8L27.15 116C29.65 116.9 32.65 117.5 35.45 117.5C51.65 117.5 49.25 99.9996 38.25 95.2996C34.15 93.4996 29.95 89.9996 29.95 85.7996C29.95 82.9996 31.65 80.8996 35.75 80.8996C38.95 80.8996 41.65 82.3996 43.85 87.4996L44.35 87.2996L43.55 80.6996Z" fill="white"/>
<path fill-rule="evenodd" clip-rule="evenodd" d="M73.7492 95.7004C74.4492 92.8004 75.1492 91.8004 76.6492 90.5004V90.4004H71.7492V90.5004C72.9492 91.5004 72.9492 93.2004 72.2492 96.2004L68.9492 111.6L65.1492 95.5004C64.5492 93.0004 64.4492 91.3004 65.2492 90.5004V90.4004H58.9492V90.5004C60.0492 91.4004 60.5492 92.6004 61.5492 95.2004L57.3492 111.7L54.0492 95.4004C53.5492 93.0004 53.3492 91.5004 54.2492 90.5004V90.4004H47.9492V90.5004C49.0492 91.4004 49.9492 92.6004 50.6492 95.5004L55.8492 117.2H56.6492L62.2492 96.9004L67.7492 117.2H68.5492L73.7492 95.7004Z" fill="white"/>
<path fill-rule="evenodd" clip-rule="evenodd" d="M88.849 114.6C80.449 114.6 80.549 104.6 81.249 98.5002H95.749C96.149 94.0002 92.949 89.7002 87.749 89.7002C73.949 89.7002 74.449 117.4 87.449 117.4C91.649 117.4 94.549 115 95.849 111.8L95.349 111.5C93.849 113.6 91.449 114.6 88.849 114.6ZM87.649 90.9002C90.549 90.9002 92.149 92.8002 92.149 96.8002V97.2002L81.349 97.4002C82.049 93.4002 84.249 90.9002 87.649 90.9002Z" fill="white"/>
<path fill-rule="evenodd" clip-rule="evenodd" d="M131.748 114.9L131.448 114.5C130.948 114.9 129.848 115.5 128.248 115.5C126.248 115.5 125.248 114.4 125.248 112.5V91.6004H131.348V90.4004H125.248V86.4004H124.948L119.648 91.1004V91.6004H122.048V112.5C122.048 116.4 124.348 117.5 126.648 117.5C129.048 117.4 130.848 116.2 131.748 114.9Z" fill="white"/>
<path fill-rule="evenodd" clip-rule="evenodd" d="M182.049 116.8H187.349V116.7C186.349 114.7 186.249 112.9 186.249 109.7V96.2998C187.449 94.7998 188.949 93.5998 189.649 93.5998C190.649 93.5998 192.249 93.8998 192.949 94.2998H193.249V89.8998C190.249 89.8998 188.149 92.8998 186.249 94.9998H186.049V89.7998L181.049 92.0998V92.1998C182.049 92.9998 182.949 94.3998 182.949 96.5998V110.1C183.049 112.9 182.949 114.7 182.049 116.8Z" fill="white"/>
<path fill-rule="evenodd" clip-rule="evenodd" d="M193.448 81.6C193.348 81.9 193.148 81.9 192.848 81.8C191.748 81.5 190.748 81.3 189.848 81.4C187.148 81.7 183.648 84.4 179.248 89.4C172.048 97.6 167.248 106 164.648 114.7C163.648 118 162.948 119.6 162.348 119.5C161.848 119.4 161.448 119 161.348 118.4C160.848 116.7 161.748 113 164.048 107.4C164.348 105.7 164.248 104.2 163.848 102.7C163.448 101.3 162.648 100.1 161.648 98.9C161.248 99.4 160.548 100.4 159.548 101.8C149.448 116.1 139.148 123.3 128.648 123.3C122.148 123.3 118.048 120.7 116.548 115.4C115.548 112 115.848 108.4 117.648 104.8C119.148 101.8 121.248 99.2 124.148 97.1C128.048 94.2 133.248 92.3 139.748 91.6C138.148 90.7 137.148 89.3 136.848 87.5C136.048 83.6 137.848 80.5 142.248 78.1C146.148 76 151.048 75 156.948 75C162.348 75 167.848 75.5 173.248 76.4C175.948 76.9 180.248 77.8 185.948 79.2C187.348 79.5 189.548 80.2 192.748 81.1C193.148 81.2 193.448 81.4 193.448 81.6ZM187.448 81.3C185.348 81.5 182.748 82.3 179.648 83.7C173.348 86.6 167.548 91.5 162.048 98.3C163.348 99.7 164.248 101.2 164.748 102.7C164.948 103.5 165.148 104.2 165.148 105C166.148 103 167.248 100.9 168.648 98.9C175.348 88.9 181.648 83.1 187.448 81.3ZM188.748 80.5C188.148 80.4 187.348 80.2 186.148 80C180.648 79 176.648 78.4 174.248 78.1C169.348 77.5 163.648 77.2 157.348 77.2C152.648 77.2 148.348 77.9 144.448 79.3C139.148 81.2 136.848 84 137.548 87.6C137.848 89.2 138.848 90.4 140.448 91.2C141.148 91.2 141.748 91.2 142.248 91.2C149.548 91.1 155.548 92.8 160.048 96.4C165.848 90.2 171.848 85.7 178.248 83.1C182.348 81.5 185.748 80.7 188.748 80.5ZM159.748 97.1C155.348 93.8 149.648 92.3 142.748 92.5C140.048 92.6 136.948 93.3 133.648 94.6C130.548 95.8 127.948 97.2 125.948 98.8C118.648 104.5 115.848 110 117.448 115.4C118.848 120.1 122.348 122.4 127.948 122.4C132.448 122.4 136.948 120.6 141.548 117C145.548 113.9 150.348 108.7 155.948 101.4C157.148 99.8 158.448 98.4 159.748 97.1Z" fill="white"/>
<path fill-rule="evenodd" clip-rule="evenodd" d="M208.249 114.9L207.949 114.5C207.449 114.9 206.349 115.5 204.749 115.5C202.749 115.5 201.749 114.4 201.749 112.5V91.6004H207.849V90.4004H201.749V86.4004H201.349L196.049 91.1004V91.6004H198.449V112.5C198.449 116.4 200.749 117.5 203.049 117.5C205.549 117.4 207.349 116.2 208.249 114.9Z" fill="white"/>
<path fill-rule="evenodd" clip-rule="evenodd" d="M109.749 114.6C101.349 114.6 101.449 104.6 102.149 98.5002H116.649C117.049 94.0002 113.849 89.7002 108.649 89.7002C94.8494 89.7002 95.3494 117.4 108.349 117.4C112.549 117.4 115.449 115 116.749 111.8L116.249 111.5C114.749 113.6 112.349 114.6 109.749 114.6ZM108.549 90.9002C111.449 90.9002 113.049 92.8002 113.049 96.8002V97.2002L102.249 97.4002C102.849 93.4002 105.149 90.9002 108.549 90.9002Z" fill="white"/>
<path fill-rule="evenodd" clip-rule="evenodd" d="M0.949219 103.4V97.2998H5.24922V97.9998H1.74922V99.8998H4.94922V100.5H1.74922V102.6H5.34922V103.3H0.949219V103.4ZM8.34922 103.5C7.54922 103.5 6.94922 103.3 6.44922 102.9C6.04922 102.5 5.74922 102 5.74922 101.3H6.44922C6.54922 102.3 7.14922 102.9 8.34922 102.9C8.74922 102.9 9.14922 102.8 9.34922 102.6C9.64922 102.4 9.74922 102.1 9.74922 101.8C9.74922 101.6 9.74922 101.5 9.64922 101.4C9.54922 101.3 9.54922 101.2 9.44922 101.1C9.34922 101 9.24922 100.9 9.04922 100.9C8.84922 100.8 8.74922 100.8 8.54922 100.7C8.34922 100.7 8.14922 100.6 7.94922 100.6C7.64922 100.5 7.34922 100.5 7.14922 100.4C6.94922 100.3 6.74922 100.2 6.54922 100.1C6.34922 99.9998 6.14922 99.7998 6.04922 99.5998C5.94922 99.3998 5.94922 99.1998 5.94922 98.8998C5.94922 98.3998 6.14922 97.9998 6.54922 97.6998C6.94922 97.3998 7.44922 97.2998 8.04922 97.2998C9.44922 97.2998 10.1492 97.8998 10.3492 99.1998H9.64922C9.54922 98.7998 9.44922 98.3998 9.14922 98.1998C8.84922 97.9998 8.54922 97.8998 8.04922 97.8998C7.64922 97.8998 7.24922 97.9998 7.04922 98.1998C6.84922 98.3998 6.64922 98.5998 6.64922 98.8998C6.64922 98.9998 6.64922 99.1998 6.74922 99.2998C6.84922 99.3998 6.84922 99.4998 6.94922 99.5998C7.04922 99.6998 7.14922 99.6998 7.24922 99.7998C7.34922 99.8998 7.54922 99.8998 7.64922 99.8998C7.74922 99.8998 7.94922 99.9998 8.14922 99.9998C8.44922 100.1 8.64922 100.1 8.84922 100.2C9.04922 100.2 9.24922 100.3 9.44922 100.4C9.64922 100.5 9.84922 100.6 9.94922 100.7C10.0492 100.8 10.1492 101 10.2492 101.2C10.3492 101.4 10.3492 101.6 10.3492 101.9C10.3492 102.5 10.1492 102.9 9.74922 103.2C9.54922 103.3 9.04922 103.5 8.34922 103.5ZM10.7492 97.9998V97.2998H15.5492V97.9998H13.5492V103.4H12.7492V97.9998H10.7492ZM15.3492 103.4H16.1492V102.6H15.3492V103.4Z" fill="white"/>
<path fill-rule="evenodd" clip-rule="evenodd" d="M218.148 103.3C218.148 102.9 218.248 102.6 218.348 102.4C218.448 102.1 218.648 101.9 218.848 101.7C219.148 101.5 219.348 101.3 219.448 101.2C219.548 101.1 219.848 100.9 220.248 100.7C220.648 100.4 221.048 100.2 221.248 100C221.448 99.8004 221.548 99.6004 221.548 99.2004C221.548 98.8004 221.448 98.6004 221.248 98.3004C221.048 98.1004 220.748 98.0004 220.348 98.0004C219.948 98.0004 219.648 98.1004 219.448 98.4004C219.248 98.6004 219.148 99.0004 219.148 99.6004H218.448C218.448 98.9004 218.648 98.4004 219.048 98.0004C219.448 97.6004 219.948 97.5004 220.548 97.5004C221.148 97.5004 221.648 97.7004 221.948 98.0004C222.348 98.3004 222.448 98.8004 222.448 99.3004C222.448 99.5004 222.448 99.7004 222.348 99.9004C222.248 100.1 222.248 100.2 222.148 100.3C222.048 100.4 221.948 100.5 221.748 100.7C221.548 100.8 221.448 100.9 221.348 101C221.248 101.1 221.048 101.1 220.848 101.3C220.748 101.3 220.748 101.4 220.748 101.4C220.448 101.6 220.248 101.7 220.048 101.8C219.848 101.9 219.648 102.1 219.448 102.3C219.248 102.5 219.148 102.7 219.048 102.9H222.248V103.6H218.148V103.3ZM225.248 103.4C224.548 103.4 223.948 103.1 223.548 102.6C223.148 102.1 222.948 101.3 222.948 100.4C222.948 99.5004 223.148 98.7004 223.548 98.2004C223.948 97.7004 224.548 97.4004 225.248 97.4004C225.948 97.4004 226.448 97.7004 226.848 98.2004C227.248 98.7004 227.448 99.5004 227.448 100.4C227.448 101.3 227.248 102.1 226.848 102.6C226.548 103.1 225.948 103.4 225.248 103.4ZM224.148 102.1C224.448 102.5 224.748 102.7 225.248 102.7C225.748 102.7 226.148 102.5 226.348 102.1C226.648 101.7 226.748 101.1 226.748 100.3C226.748 99.5004 226.648 98.9004 226.348 98.5004C226.048 98.1004 225.748 97.9004 225.248 97.9004C224.748 97.9004 224.348 98.1004 224.148 98.5004C223.848 98.9004 223.748 99.5004 223.748 100.3C223.748 101.1 223.848 101.7 224.148 102.1ZM228.148 103.3C228.148 102.9 228.248 102.6 228.348 102.4C228.448 102.1 228.648 101.9 228.848 101.7C229.148 101.5 229.348 101.3 229.448 101.2C229.548 101.1 229.848 100.9 230.248 100.7C230.648 100.4 231.048 100.2 231.248 100C231.448 99.8004 231.548 99.6004 231.548 99.2004C231.548 98.8004 231.448 98.6004 231.248 98.3004C231.048 98.1004 230.748 98.0004 230.348 98.0004C229.948 98.0004 229.648 98.1004 229.448 98.4004C229.248 98.6004 229.148 99.0004 229.148 99.6004H228.448C228.448 98.9004 228.648 98.4004 229.048 98.0004C229.448 97.6004 229.948 97.5004 230.548 97.5004C231.148 97.5004 231.648 97.7004 231.948 98.0004C232.348 98.3004 232.448 98.8004 232.448 99.3004C232.448 99.5004 232.448 99.7004 232.348 99.9004C232.248 100.1 232.248 100.2 232.148 100.3C232.048 100.4 231.948 100.5 231.748 100.7C231.548 100.8 231.448 100.9 231.348 101C231.248 101.1 231.048 101.1 230.848 101.3C230.748 101.3 230.748 101.4 230.748 101.4C230.448 101.6 230.248 101.7 230.048 101.8C229.848 101.9 229.648 102.1 229.448 102.3C229.248 102.5 229.148 102.7 229.048 102.9H232.248V103.6H228.148V103.3ZM232.848 103.3C232.848 102.9 232.948 102.6 233.048 102.4C233.148 102.1 233.348 101.9 233.548 101.7C233.848 101.5 234.048 101.3 234.148 101.2C234.248 101.1 234.548 100.9 234.948 100.7C235.348 100.4 235.748 100.2 235.948 100C236.148 99.8004 236.248 99.6004 236.248 99.2004C236.248 98.8004 236.148 98.6004 235.948 98.3004C235.748 98.1004 235.448 98.0004 235.048 98.0004C234.648 98.0004 234.348 98.1004 234.148 98.4004C233.948 98.6004 233.848 99.0004 233.848 99.6004H232.948C232.948 98.9004 233.148 98.4004 233.548 98.0004C233.948 97.6004 234.448 97.5004 235.048 97.5004C235.648 97.5004 236.148 97.7004 236.448 98.0004C236.848 98.3004 236.948 98.8004 236.948 99.3004C236.948 99.5004 236.948 99.7004 236.848 99.9004C236.748 100.1 236.748 100.2 236.648 100.3C236.548 100.4 236.448 100.5 236.248 100.7C236.048 100.8 235.948 100.9 235.848 101C235.748 101.1 235.548 101.1 235.348 101.3C235.248 101.3 235.248 101.4 235.248 101.4C234.948 101.6 234.748 101.7 234.548 101.8C234.348 101.9 234.148 102.1 233.948 102.3C233.748 102.5 233.648 102.7 233.548 102.9H236.748V103.6H232.848V103.3Z" fill="white"/>
<path fill-rule="evenodd" clip-rule="evenodd" d="M59.4488 147.5V144.1L56.5488 139.4H57.6488L59.9488 143.3L62.3488 139.4H63.4488L60.4488 144.1V147.5H59.4488ZM70.1488 146.5C70.8488 145.7 71.2488 144.7 71.2488 143.5C71.2488 142.3 70.8488 141.3 70.1488 140.5C69.4488 139.7 68.4488 139.3 67.2488 139.3C66.0488 139.3 65.0488 139.7 64.3488 140.5C63.6488 141.3 63.2488 142.3 63.2488 143.5C63.2488 144.7 63.6488 145.7 64.3488 146.5C65.0488 147.3 66.0488 147.7 67.2488 147.7C68.4488 147.7 69.4488 147.3 70.1488 146.5ZM65.1488 145.9C64.6488 145.3 64.3488 144.5 64.3488 143.5C64.3488 142.5 64.6488 141.7 65.1488 141.1C65.6488 140.5 66.3488 140.2 67.3488 140.2C68.2488 140.2 68.9488 140.5 69.5488 141.1C70.0488 141.7 70.3488 142.5 70.3488 143.5C70.3488 144.5 70.0488 145.3 69.5488 145.9C69.0488 146.5 68.3488 146.8 67.3488 146.8C66.3488 146.8 65.6488 146.5 65.1488 145.9ZM75.4488 147.7C74.5488 147.7 73.7488 147.5 73.1488 147C72.5488 146.6 72.3488 145.9 72.3488 144.9V139.4H73.3488V144.8C73.3488 146.1 74.0488 146.8 75.4488 146.8C76.8488 146.8 77.5488 146.1 77.5488 144.8V139.4H78.5488V144.9C78.5488 145.8 78.2488 146.5 77.6488 147C77.1488 147.4 76.3488 147.7 75.4488 147.7ZM79.9488 147.5V139.4H83.7488C84.4488 139.4 85.0488 139.6 85.4488 140C85.8488 140.4 86.1488 140.9 86.1488 141.6C86.1488 142.6 85.6488 143.3 84.7488 143.6C85.1488 143.7 85.4488 144 85.6488 144.3C85.8488 144.6 85.9488 145.1 85.9488 145.7C86.0488 146.7 86.1488 147.3 86.3488 147.4H85.2488C85.1488 147.3 85.1488 147.2 85.0488 147C85.0488 146.8 84.9488 146.3 84.9488 145.6C84.9488 145 84.7488 144.6 84.5488 144.4C84.2488 144.2 83.8488 144 83.3488 144H80.9488V147.4H79.9488V147.5ZM80.9488 140.3V143.3H83.3488C83.9488 143.3 84.3488 143.2 84.6488 142.9C84.9488 142.6 85.0488 142.3 85.0488 141.8C85.0488 141.3 84.9488 140.9 84.6488 140.7C84.3488 140.5 83.9488 140.3 83.3488 140.3H80.9488ZM92.6488 147.7C91.5488 147.7 90.5488 147.3 89.8488 146.5C89.1488 145.7 88.8488 144.7 88.8488 143.5C88.8488 142.3 89.1488 141.3 89.8488 140.5C90.5488 139.7 91.4488 139.3 92.6488 139.3C93.5488 139.3 94.3488 139.5 94.8488 140C95.4488 140.5 95.7488 141.1 95.8488 141.9H94.8488C94.7488 141.4 94.5488 141 94.1488 140.7C93.7488 140.4 93.2488 140.2 92.6488 140.2C91.7488 140.2 91.1488 140.5 90.6488 141.1C90.1488 141.7 89.9488 142.5 89.9488 143.5C89.9488 144.5 90.2488 145.3 90.7488 145.9C91.2488 146.5 91.9488 146.8 92.7488 146.8C93.4488 146.8 94.0488 146.6 94.4488 146.2C94.8488 145.8 95.0488 145.2 95.1488 144.6H96.1488C96.1488 145 96.0488 145.4 95.8488 145.8C95.6488 146.2 95.4488 146.6 95.1488 146.8C94.4488 147.4 93.6488 147.7 92.6488 147.7ZM96.3488 147.5L99.3488 139.4H100.449L103.449 147.5H102.349L101.449 145H98.2488L97.3488 147.5H96.3488ZM99.5488 141.5L98.5488 144.2H101.249L100.349 141.5L99.9488 140.4C99.7488 140.8 99.6488 141.2 99.5488 141.5ZM104.349 147.5V139.4H105.349V143.4L109.349 139.4H110.649L107.349 142.6L110.849 147.5H109.649L106.649 143.3L105.349 144.6V147.5H104.349ZM111.649 147.5V139.4H117.349V140.3H112.649V142.9H116.949V143.8H112.649V146.6H117.449V147.5H111.649ZM123.949 147.7C122.849 147.7 121.849 147.3 121.149 146.5C120.449 145.7 120.149 144.7 120.149 143.5C120.149 142.3 120.449 141.3 121.149 140.5C121.849 139.7 122.749 139.3 123.949 139.3C124.849 139.3 125.649 139.5 126.149 140C126.749 140.5 127.049 141.1 127.149 141.9H126.149C126.049 141.4 125.849 141 125.449 140.7C125.049 140.4 124.549 140.2 123.949 140.2C123.049 140.2 122.449 140.5 121.949 141.1C121.449 141.7 121.249 142.5 121.249 143.5C121.249 144.5 121.549 145.3 122.049 145.9C122.549 146.5 123.249 146.8 124.049 146.8C124.749 146.8 125.349 146.6 125.749 146.2C126.149 145.8 126.349 145.2 126.449 144.6H127.449C127.449 145 127.349 145.4 127.149 145.8C126.949 146.2 126.749 146.6 126.449 146.8C125.849 147.4 125.049 147.7 123.949 147.7ZM128.549 147.5V139.4H132.349C133.049 139.4 133.649 139.6 134.049 140C134.449 140.4 134.749 140.9 134.749 141.6C134.749 142.6 134.249 143.3 133.349 143.6C133.749 143.7 134.049 144 134.249 144.3C134.449 144.6 134.549 145.1 134.549 145.7C134.649 146.7 134.749 147.3 134.949 147.4H133.849C133.749 147.3 133.749 147.2 133.649 147C133.649 146.8 133.549 146.3 133.549 145.6C133.549 145 133.349 144.6 133.149 144.4C132.849 144.2 132.449 144 131.949 144H129.649V147.4H128.549V147.5ZM129.549 140.3V143.3H131.949C132.549 143.3 132.949 143.2 133.249 142.9C133.549 142.6 133.649 142.3 133.649 141.8C133.649 141.3 133.549 140.9 133.249 140.7C132.949 140.5 132.549 140.3 131.949 140.3H129.549ZM135.949 147.5V139.4H141.649V140.3H136.949V142.9H141.249V143.8H136.949V146.6H141.749V147.5H135.949ZM142.449 147.5L145.449 139.4H146.549L149.549 147.5H148.449L147.549 145H144.349L143.449 147.5H142.449ZM145.649 141.5L144.649 144.2H147.349L146.449 141.5L146.049 140.4C145.849 140.8 145.749 141.2 145.649 141.5ZM148.949 140.3H151.649V147.5H152.649V140.3H155.349V139.4H148.949V140.3ZM162.349 146.5C161.649 147.3 160.649 147.7 159.449 147.7C158.249 147.7 157.249 147.3 156.549 146.5C155.849 145.7 155.449 144.7 155.449 143.5C155.449 142.3 155.849 141.3 156.549 140.5C157.249 139.7 158.249 139.3 159.449 139.3C160.649 139.3 161.649 139.7 162.349 140.5C163.049 141.3 163.449 142.3 163.449 143.5C163.449 144.7 163.149 145.7 162.349 146.5ZM157.349 145.9C157.849 146.5 158.549 146.8 159.549 146.8C160.449 146.8 161.149 146.5 161.749 145.9C162.249 145.3 162.549 144.5 162.549 143.5C162.549 142.5 162.249 141.7 161.749 141.1C161.249 140.5 160.549 140.2 159.549 140.2C158.649 140.2 157.949 140.5 157.349 141.1C156.849 141.7 156.549 142.5 156.549 143.5C156.549 144.5 156.849 145.3 157.349 145.9ZM164.649 147.5V139.4H168.449C169.149 139.4 169.749 139.6 170.149 140C170.549 140.4 170.849 140.9 170.849 141.6C170.849 142.6 170.349 143.3 169.449 143.6C169.849 143.7 170.149 144 170.349 144.3C170.549 144.6 170.649 145.1 170.649 145.7C170.749 146.7 170.849 147.3 171.049 147.4H169.949C169.849 147.3 169.849 147.2 169.749 147C169.649 146.8 169.649 146.3 169.649 145.6C169.649 145 169.449 144.6 169.249 144.4C168.949 144.2 168.549 144 168.049 144H165.749V147.4H164.649V147.5ZM165.749 140.3V143.3H168.149C168.749 143.3 169.149 143.2 169.449 142.9C169.749 142.6 169.849 142.3 169.849 141.8C169.849 141.3 169.749 140.9 169.449 140.7C169.149 140.5 168.749 140.3 168.149 140.3H165.749ZM175.049 147.7C173.949 147.7 173.149 147.4 172.549 146.9C171.949 146.4 171.649 145.7 171.649 144.8H172.649C172.749 146.2 173.649 146.9 175.149 146.9C175.749 146.9 176.149 146.8 176.549 146.5C176.949 146.2 177.049 145.9 177.049 145.4C177.049 145.2 177.049 145 176.949 144.8C176.849 144.6 176.749 144.5 176.649 144.4C176.549 144.3 176.349 144.2 176.149 144.1C175.949 144 175.649 143.9 175.449 143.9C175.249 143.8 174.949 143.8 174.649 143.7C174.249 143.6 173.849 143.5 173.649 143.4C173.349 143.3 173.149 143.2 172.849 143C172.549 142.8 172.349 142.6 172.249 142.4C172.149 142.1 172.049 141.8 172.049 141.5C172.049 140.8 172.349 140.3 172.849 139.9C173.349 139.5 174.049 139.3 174.849 139.3C176.649 139.3 177.649 140.1 177.949 141.8H176.949C176.849 141.2 176.649 140.8 176.349 140.5C175.949 140.2 175.549 140.1 174.949 140.1C174.349 140.1 173.949 140.2 173.649 140.4C173.349 140.6 173.149 140.9 173.149 141.4C173.149 141.6 173.149 141.7 173.249 141.9C173.349 142 173.449 142.2 173.549 142.3C173.649 142.4 173.849 142.5 174.049 142.6C174.249 142.7 174.449 142.7 174.649 142.8C174.849 142.8 175.049 142.9 175.349 143C175.749 143.1 176.049 143.1 176.249 143.2C176.449 143.3 176.749 143.4 177.049 143.5C177.349 143.6 177.549 143.8 177.749 143.9C177.949 144.1 178.049 144.3 178.149 144.6C178.249 144.9 178.349 145.2 178.349 145.5C178.349 146.2 178.049 146.8 177.549 147.2C176.649 147.5 175.949 147.7 175.049 147.7Z" fill="white"/>
</g>
<defs>
<clipPath id="clip0_56_346">
<rect width="236.1" height="147.7" fill="white" transform="translate(0.949219)"/>
</clipPath>
</defs>
</svg>
