<svg width="244" height="50" viewBox="0 0 244 50" fill="none" xmlns="http://www.w3.org/2000/svg">
<g clip-path="url(#clip0_56_87)">
<path d="M44.2736 6.07223C42.4719 5.40493 39.8694 4.87109 37.3337 4.87109C31.8618 4.87109 27.5911 7.3401 27.5911 12.7452C27.5911 18.2171 32.5959 22.0207 36.8666 24.2895C46.0086 29.094 46.8761 42.3733 37.0668 42.3733C32.5959 42.3733 29.593 40.0377 27.0573 34.5659L26.5234 34.7661L27.4577 42.1731C29.9934 43.1073 33.063 43.7079 35.9991 43.7079C52.6148 43.7079 50.2125 25.8243 38.8685 20.953C34.7312 19.1513 30.3938 15.5479 30.3938 11.2772C30.3938 8.40777 32.1955 6.20569 36.266 6.20569C39.5358 6.20569 42.3384 7.74047 44.6072 12.9454L45.1411 12.7452L44.2736 6.07223Z" fill="#232324"/>
<path d="M75.2359 21.4203C75.9699 18.4841 76.7039 17.4165 78.172 16.0819V16.0151H73.1673V16.0819C74.3684 17.0828 74.3684 18.8845 73.7011 21.9541L70.3646 37.7023L66.4276 21.2201C65.827 18.6176 65.6935 16.9494 66.4943 16.0819V16.0151H60.0882V16.0819C61.1559 17.0161 61.7565 18.284 62.7574 20.8864L58.4867 37.8358L55.0835 21.1533C54.6164 18.6843 54.4162 17.1495 55.2837 16.1486V16.0151H48.7441V16.0819C49.8118 17.0161 50.746 18.2172 51.48 21.2201L56.7517 43.4411H57.5525L63.2912 22.5547L68.8966 43.4411H69.6973L75.2359 21.4203Z" fill="#232324"/>
<path d="M89.5172 16.5488C92.52 16.5488 94.1883 18.484 94.1883 22.6212V23.0216L83.1111 23.2218C83.7784 19.1513 86.0472 16.5488 89.5172 16.5488ZM90.7851 40.8385C82.1102 40.8385 82.3104 30.5621 82.9109 24.3562H97.7917C98.1921 19.6851 94.9223 15.3477 89.6507 15.3477C75.4372 15.3477 76.0378 43.7746 89.317 43.7746C93.5877 43.7746 96.6573 41.3056 97.9252 38.0358L97.4581 37.7022C95.9233 39.8375 93.4543 40.8385 90.7851 40.8385Z" fill="#232324"/>
<path d="M134.759 41.1056L134.426 40.7052C133.959 41.1056 132.758 41.7062 131.156 41.7062C129.087 41.7062 128.153 40.6385 128.153 38.5699V17.2163H134.426V16.0152H128.153V11.8779H127.753L122.348 16.7492V17.283H124.75V38.7033C124.75 42.7071 127.085 43.8415 129.421 43.8415C131.957 43.7748 133.825 42.4402 134.759 41.1056Z" fill="#232324"/>
<path d="M186.342 43.1076H191.814V43.0409C190.813 40.9722 190.746 39.1038 190.746 35.9008V22.021C192.014 20.4862 193.482 19.2183 194.283 19.2183C195.351 19.2183 196.952 19.552 197.686 19.8856H197.953L198.02 15.348C194.95 15.2812 192.815 18.4175 190.813 20.5529L190.613 20.4862V15.0811L185.475 17.4166V17.4833C186.542 18.3508 187.477 19.6854 187.477 21.9542V35.7673C187.477 39.0371 187.276 40.8388 186.409 42.9074V43.1076H186.342Z" fill="#232324"/>
<path d="M163.454 22.8883C158.917 19.4851 153.111 17.9503 146.038 18.1505C143.235 18.2173 140.099 18.9513 136.763 20.2859C133.559 21.487 130.957 22.9551 128.822 24.6233C121.348 30.4288 118.479 36.1009 120.147 41.7062C121.615 46.5107 125.152 48.913 130.89 48.913C135.495 48.913 140.099 47.0446 144.77 43.3744C148.841 40.1714 153.779 34.833 159.517 27.426C160.785 25.691 162.12 24.2229 163.454 22.8883ZM193.216 5.87223C192.615 5.73877 191.748 5.53858 190.547 5.33839C184.875 4.33744 180.804 3.67015 178.402 3.40323C173.33 2.80266 167.525 2.469 161.052 2.469C156.248 2.469 151.843 3.20303 147.84 4.67109C142.368 6.67299 140.032 9.54237 140.766 13.2125C141.1 14.8808 142.101 16.1486 143.769 16.8827C144.436 16.8827 145.104 16.8827 145.571 16.8827C153.045 16.7492 159.184 18.5509 163.855 22.221C169.794 15.815 176 11.2773 182.539 8.54142C186.61 6.93991 190.146 6.00569 193.216 5.87223ZM191.881 6.67299C189.679 6.87318 187.077 7.67394 183.941 9.07527C177.534 12.0114 171.462 17.0161 165.923 24.0228C167.258 25.4908 168.192 26.9589 168.659 28.5604C168.926 29.3611 168.993 30.1619 169.06 30.8959C170.061 28.8273 171.195 26.7587 172.596 24.6901C179.536 14.4804 185.942 8.47469 191.881 6.67299ZM198.087 6.9399C198.021 7.20682 197.82 7.27355 197.42 7.14009C196.286 6.80644 195.285 6.67299 194.35 6.73972C191.614 7.07337 188.011 9.74256 183.473 14.9475C176.133 23.3554 171.128 31.9636 168.526 40.8387C167.525 44.2419 166.724 45.8434 166.19 45.7767C165.657 45.6432 165.323 45.2428 165.123 44.5755C164.589 42.7738 165.523 39.037 167.859 33.2982C168.192 31.63 168.126 30.0284 167.658 28.4937C167.258 27.0923 166.457 25.8245 165.39 24.6233C164.989 25.1572 164.255 26.1581 163.188 27.5594C152.844 42.24 142.234 49.5803 131.424 49.5803C124.751 49.5803 120.614 46.8444 118.946 41.4393C117.878 37.9026 118.278 34.2992 120.147 30.5623C121.682 27.4927 123.884 24.8235 126.753 22.6214C130.757 19.6186 136.095 17.7501 142.701 17.0161C141.033 16.0819 140.099 14.6806 139.765 12.8121C138.965 8.80834 140.833 5.60531 145.304 3.20304C149.308 1.06768 154.312 0 160.385 0C165.99 0 171.529 0.467107 177.134 1.46806C179.937 1.93516 184.274 2.93611 190.146 4.33744C191.548 4.67109 193.883 5.33839 197.086 6.2726C197.687 6.60625 198.021 6.80644 198.087 6.9399Z" fill="#232324"/>
<path d="M213.234 41.1056L212.901 40.7052C212.434 41.1056 211.232 41.7062 209.631 41.7062C207.562 41.7062 206.561 40.6385 206.561 38.5699V17.2163H212.834V16.0152H206.561V11.8779H206.161L200.756 16.7492V17.283H203.158V38.7033C203.158 42.7071 205.494 43.8415 207.829 43.8415C210.432 43.7748 212.3 42.4402 213.234 41.1056Z" fill="#232324"/>
<path d="M110.937 16.5488C113.94 16.5488 115.609 18.484 115.609 22.6212V23.0216L104.531 23.2218C105.132 19.1513 107.467 16.5488 110.937 16.5488ZM112.139 40.8385C103.464 40.8385 103.664 30.5621 104.264 24.3562H119.145C119.612 19.6851 116.276 15.3477 111.004 15.3477C96.7907 15.3477 97.3913 43.7746 110.671 43.7746C114.941 43.7746 118.011 41.3056 119.279 38.0358L118.812 37.7022C117.277 39.8375 114.808 40.8385 112.139 40.8385Z" fill="#232324"/>
<path d="M0.767742 29.6118V23.2718H4.59407V23.9528H1.53548V26.0951H4.39594V26.7761H1.53548V28.9308H4.6436V29.6118H0.767742Z" fill="#232324"/>
<path d="M9.56895 24.8568C9.5318 24.5431 9.38114 24.2995 9.11697 24.1262C8.8528 23.9528 8.52878 23.8661 8.14491 23.8661C7.86423 23.8661 7.61864 23.9115 7.40813 24.0023C7.19968 24.0932 7.03664 24.218 6.919 24.3769C6.80343 24.5358 6.74564 24.7164 6.74564 24.9187C6.74564 25.0879 6.78588 25.2334 6.86637 25.3552C6.94893 25.4749 7.05418 25.575 7.18214 25.6555C7.3101 25.7339 7.44424 25.7989 7.58458 25.8505C7.72492 25.9 7.85391 25.9403 7.97155 25.9712L8.61546 26.1446C8.78057 26.1879 8.96425 26.2478 9.1665 26.3241C9.37082 26.4005 9.56585 26.5047 9.7516 26.6368C9.93941 26.7668 10.0942 26.934 10.216 27.1383C10.3377 27.3426 10.3986 27.5934 10.3986 27.8906C10.3986 28.2332 10.3088 28.5428 10.1293 28.8193C9.95179 29.0959 9.69175 29.3157 9.34915 29.4787C9.00862 29.6417 8.59483 29.7233 8.10776 29.7233C7.65372 29.7233 7.26056 29.65 6.92829 29.5035C6.59808 29.3569 6.33803 29.1526 6.14816 28.8905C5.96035 28.6284 5.85407 28.324 5.8293 27.9773H6.62181C6.64245 28.2167 6.72294 28.4148 6.86328 28.5716C7.00568 28.7264 7.18523 28.842 7.40194 28.9184C7.6207 28.9927 7.85598 29.0298 8.10776 29.0298C8.40083 29.0298 8.66396 28.9824 8.89718 28.8874C9.13039 28.7904 9.3151 28.6563 9.45131 28.485C9.58752 28.3116 9.65563 28.1094 9.65563 27.8782C9.65563 27.6677 9.59681 27.4964 9.47917 27.3643C9.36154 27.2322 9.20675 27.1249 9.01481 27.0424C8.82288 26.9598 8.61546 26.8876 8.39257 26.8257L7.61245 26.6028C7.11713 26.4604 6.725 26.2571 6.43607 25.9929C6.14713 25.7287 6.00266 25.383 6.00266 24.9558C6.00266 24.6009 6.09863 24.2913 6.29057 24.0271C6.48457 23.7609 6.74461 23.5545 7.07069 23.408C7.39884 23.2594 7.76517 23.1851 8.16968 23.1851C8.57831 23.1851 8.94155 23.2583 9.25938 23.4049C9.57721 23.5493 9.82899 23.7475 10.0147 23.9992C10.2025 24.251 10.3016 24.5369 10.3119 24.8568H9.56895Z" fill="#232324"/>
<path d="M10.9073 23.9528V23.2718H15.6624V23.9528H13.6687V29.6118H12.901V23.9528H10.9073Z" fill="#232324"/>
<path d="M16.2207 29.6613C16.068 29.6613 15.9369 29.6067 15.8275 29.4973C15.7181 29.3879 15.6634 29.2568 15.6634 29.1041C15.6634 28.9514 15.7181 28.8203 15.8275 28.711C15.9369 28.6016 16.068 28.5469 16.2207 28.5469C16.3734 28.5469 16.5045 28.6016 16.6138 28.711C16.7232 28.8203 16.7779 28.9514 16.7779 29.1041C16.7779 29.2052 16.7521 29.2981 16.7005 29.3827C16.651 29.4673 16.5839 29.5355 16.4993 29.5871C16.4167 29.6366 16.3239 29.6613 16.2207 29.6613Z" fill="#232324"/>
<path d="M223.772 29.5068V28.9496L225.864 26.6588C226.11 26.3905 226.312 26.1573 226.471 25.9591C226.63 25.7589 226.748 25.5711 226.824 25.3957C226.902 25.2182 226.942 25.0325 226.942 24.8385C226.942 24.6156 226.888 24.4226 226.781 24.2596C226.675 24.0965 226.531 23.9706 226.347 23.8819C226.164 23.7931 225.957 23.7488 225.728 23.7488C225.485 23.7488 225.272 23.7993 225.09 23.9005C224.911 23.9995 224.771 24.1388 224.672 24.3184C224.575 24.4979 224.527 24.7084 224.527 24.9499H223.796C223.796 24.5784 223.882 24.2523 224.053 23.9717C224.225 23.691 224.458 23.4722 224.753 23.3154C225.05 23.1585 225.383 23.0801 225.753 23.0801C226.124 23.0801 226.453 23.1585 226.74 23.3154C227.027 23.4722 227.252 23.6838 227.415 23.95C227.578 24.2162 227.66 24.5124 227.66 24.8385C227.66 25.0717 227.617 25.2997 227.533 25.5226C227.45 25.7435 227.306 25.9901 227.099 26.2625C226.895 26.5329 226.611 26.8631 226.248 27.2531L224.824 28.7762V28.8258H227.771V29.5068H223.772ZM231.118 29.5935C230.651 29.5935 230.254 29.4666 229.926 29.2127C229.598 28.9568 229.347 28.5864 229.174 28.1014C229 27.6143 228.914 27.0261 228.914 26.3368C228.914 25.6516 229 25.0665 229.174 24.5815C229.349 24.0945 229.601 23.723 229.929 23.4671C230.259 23.2091 230.655 23.0801 231.118 23.0801C231.58 23.0801 231.975 23.2091 232.303 23.4671C232.634 23.723 232.885 24.0945 233.059 24.5815C233.234 25.0665 233.322 25.6516 233.322 26.3368C233.322 27.0261 233.235 27.6143 233.062 28.1014C232.888 28.5864 232.638 28.9568 232.31 29.2127C231.981 29.4666 231.584 29.5935 231.118 29.5935ZM231.118 28.9125C231.58 28.9125 231.939 28.6896 232.195 28.2438C232.451 27.798 232.579 27.1623 232.579 26.3368C232.579 25.7878 232.52 25.3204 232.402 24.9344C232.287 24.5485 232.12 24.2544 231.901 24.0522C231.684 23.8499 231.423 23.7488 231.118 23.7488C230.66 23.7488 230.301 23.9748 230.043 24.4267C229.786 24.8766 229.657 25.5133 229.657 26.3368C229.657 26.8858 229.714 27.3522 229.83 27.7361C229.945 28.1199 230.112 28.412 230.328 28.6122C230.547 28.8124 230.81 28.9125 231.118 28.9125Z" fill="#232324"/>
<path d="M233.981 29.5068V28.9496L236.073 26.6588C236.319 26.3905 236.521 26.1573 236.68 25.9591C236.839 25.7589 236.957 25.5711 237.033 25.3957C237.111 25.2182 237.151 25.0325 237.151 24.8385C237.151 24.6156 237.097 24.4226 236.99 24.2596C236.884 24.0965 236.74 23.9706 236.556 23.8819C236.372 23.7931 236.166 23.7488 235.937 23.7488C235.693 23.7488 235.481 23.7993 235.299 23.9005C235.12 23.9995 234.98 24.1388 234.881 24.3184C234.784 24.4979 234.736 24.7084 234.736 24.9499H234.005C234.005 24.5784 234.091 24.2523 234.262 23.9717C234.434 23.691 234.667 23.4722 234.962 23.3154C235.259 23.1585 235.592 23.0801 235.962 23.0801C236.333 23.0801 236.662 23.1585 236.949 23.3154C237.236 23.4722 237.461 23.6838 237.624 23.95C237.787 24.2162 237.869 24.5124 237.869 24.8385C237.869 25.0717 237.826 25.2997 237.742 25.5226C237.659 25.7435 237.515 25.9901 237.308 26.2625C237.104 26.5329 236.82 26.8631 236.457 27.2531L235.033 28.7762V28.8258H237.98V29.5068H233.981ZM239.259 29.5068V28.9496L241.351 26.6588C241.597 26.3905 241.799 26.1573 241.958 25.9591C242.117 25.7589 242.235 25.5711 242.311 25.3957C242.39 25.2182 242.429 25.0325 242.429 24.8385C242.429 24.6156 242.375 24.4226 242.268 24.2596C242.163 24.0965 242.018 23.9706 241.834 23.8819C241.651 23.7931 241.444 23.7488 241.215 23.7488C240.972 23.7488 240.759 23.7993 240.578 23.9005C240.398 23.9995 240.259 24.1388 240.16 24.3184C240.063 24.4979 240.014 24.7084 240.014 24.9499H239.284C239.284 24.5784 239.369 24.2523 239.54 23.9717C239.712 23.691 239.945 23.4722 240.24 23.3154C240.537 23.1585 240.871 23.0801 241.24 23.0801C241.612 23.0801 241.941 23.1585 242.228 23.3154C242.514 23.4722 242.739 23.6838 242.902 23.95C243.065 24.2162 243.147 24.5124 243.147 24.8385C243.147 25.0717 243.105 25.2997 243.02 25.5226C242.938 25.7435 242.793 25.9901 242.587 26.2625C242.382 26.5329 242.099 26.8631 241.735 27.2531L240.311 28.7762V28.8258H243.258V29.5068H239.259Z" fill="#232324"/>
</g>
<defs>
<clipPath id="clip0_56_87">
<rect width="244" height="49.5803" fill="white"/>
</clipPath>
</defs>
</svg>
